<svg xmlns="http://www.w3.org/2000/svg" viewBox="0 0 32 32" width="44" height="44">
  <path fill="#bb271a" d="M8 29.333v-5.667q-1.233-0.544-2.217-1.461t-1.678-2.106-1.067-2.578-0.372-2.856q0-5.267 3.733-8.633t9.6-3.367 9.6 3.367 3.733 8.633q0 1.467-0.372 2.856t-1.067 2.578-1.678 2.106-2.217 1.461v5.667h-16zM10.222 27.111h2v-3.111h2.222v3.111h3.111v-3.111h2.222v3.111h2v-4.844q1.245-0.344 2.228-1.067t1.678-1.722 1.061-2.223 0.367-2.585q0-4.367-3.072-7.074t-8.038-2.707-8.039 2.707-3.073 7.075q0 1.362 0.367 2.585t1.061 2.222 1.683 1.722 2.222 1.067v4.844zM14 20h4l-2-4-2 4zM11.335 16.889q1.009 0 1.726-0.719t0.717-1.728-0.719-1.726-1.728-0.717-1.726 0.719-0.717 1.728 0.719 1.726 1.728 0.717zM20.669 16.889q1.009 0 1.726-0.719t0.717-1.728-0.719-1.726-1.728-0.717-1.726 0.719-0.717 1.728 0.719 1.726 1.728 0.717z"></path>
</svg>