<svg xmlns="http://www.w3.org/2000/svg" viewBox="0 0 32 32" width="44" height="44">
  <path fill="#75fb4c" d="M20.8 14.378q0.778 0 1.322-0.544t0.544-1.322-0.544-1.322-1.322-0.545-1.322 0.545-0.544 1.322q0 0.778 0.544 1.322t1.322 0.544zM11.2 14.378q0.778 0 1.322-0.544t0.544-1.322-0.544-1.322-1.322-0.545-1.322 0.545-0.544 1.322q0 0.778 0.544 1.322t1.322 0.544zM16 23.311q2.222 0 4.072-1.217t2.683-3.272h-13.511q0.856 2.055 2.695 3.272t4.061 1.217zM16 29.333q-2.767 0-5.2-1.050t-4.233-2.85-2.85-4.233-1.050-5.2 1.050-5.2 2.85-4.233 4.233-2.85 5.2-1.050 5.2 1.050 4.233 2.85 2.85 4.233 1.050 5.2-1.050 5.2-2.85 4.233-4.233 2.85-5.2 1.050zM16 27.111q4.653 0 7.882-3.229t3.229-7.882-3.229-7.882-7.882-3.229-7.882 3.229-3.229 7.882 3.229 7.882 7.882 3.229z"></path>
</svg>