<svg xmlns="http://www.w3.org/2000/svg" viewBox="0 0 32 32" width="44" height="44">
  <path fill="#136cf1" d="M8.333 21.333h2v-0.333q0-2.367 1.65-4.017t4.017-1.65 4.017 1.65 1.65 4.017v0.333h2v-0.333q0-3.2-2.233-5.433t-5.433-2.233-5.433 2.233-2.233 5.433v0.333zM9.467 12.333q1.367-0.2 2.883-1.067t2.417-1.967l-1.533-1.267q-0.667 0.8-1.85 1.467t-2.183 0.833l0.267 2zM22.533 12.333l0.267-2q-1-0.167-2.183-0.833t-1.85-1.467l-1.533 1.267q0.9 1.1 2.417 1.967t2.883 1.067zM16 29.333q-2.767 0-5.2-1.050t-4.233-2.85-2.85-4.233-1.050-5.2 1.050-5.2 2.85-4.233 4.233-2.85 5.2-1.050 5.2 1.050 4.233 2.85 2.85 4.233 1.050 5.2-1.050 5.2-2.85 4.233-4.233 2.85-5.2 1.050zM16 27.111q4.653 0 7.882-3.229t3.229-7.882-3.229-7.882-7.882-3.229-7.882 3.229-3.229 7.882 3.229 7.882 7.882 3.229z"></path>
</svg>